<svg width="256" height="254" viewBox="0 0 256 254" fill="none" xmlns="http://www.w3.org/2000/svg">
<path d="M-3.35852 21.6077C23.5179 19.4181 48.3249 9.64642 75.3987 7.34519C94.5471 5.7223 113.137 1.28297 132.414 0.69049C184.184 -0.906637 236.288 0.656143 288.083 0.69049" stroke="#636363" stroke-width="0.85867" stroke-miterlimit="10"/>
<path d="M-3.39282 25.7465C23.2174 23.1877 48.2734 14.9015 75.0038 12.4629C94.5385 10.6769 113.189 5.43897 132.887 4.82072C184.338 3.19784 236.588 4.97528 288.091 5.36169" stroke="#636363" stroke-width="0.85867" stroke-miterlimit="10"/>
<path d="M-3.49588 29.061C22.6335 26.588 48.2648 20.6546 74.3769 17.8296C94.6587 15.6314 113.549 8.75345 134.097 8.10944C156.371 7.40533 178.216 11.3724 200.43 11.6042C229.667 11.9134 258.862 9.82678 288.1 10.0329" stroke="#636363" stroke-width="0.85867" stroke-miterlimit="10"/>
<path d="M-3.65045 31.6971C21.8864 29.662 48.1961 26.7426 73.5526 23.4023C94.882 20.5945 114.142 11.3552 135.892 10.7026C158.226 10.0328 179.452 16.6618 201.615 17.5634C230.466 18.7397 259.24 14.6954 288.083 14.6954" stroke="#636363" stroke-width="0.85867" stroke-miterlimit="10"/>
<path d="M-3.83905 33.7922C21.3114 32.4441 47.6554 32.5128 72.5998 29.1211C95.2601 26.0384 114.898 13.3301 138.185 12.7376C160.682 12.1709 181.033 21.9082 203.152 23.763C231.437 26.1329 259.824 19.6929 288.092 19.358" stroke="#636363" stroke-width="0.85867" stroke-miterlimit="10"/>
<path d="M-4.06293 35.501C20.5981 35.0374 47.131 39.1762 71.5258 34.9687C95.5171 30.8385 115.919 14.7985 140.803 14.3863C163.584 14.0085 182.835 27.1548 204.912 30.1601C232.424 33.9125 260.588 24.7934 288.083 24.0292" stroke="#636363" stroke-width="0.85867" stroke-miterlimit="10"/>
<path d="M-4.30273 36.9608C20.0835 37.4846 46.1785 45.9596 70.393 40.8849C95.6379 35.6041 117.208 15.8718 143.655 15.7774C166.813 15.6915 184.819 32.3755 206.836 36.6688C233.403 41.8466 261.516 29.9368 288.083 28.6918" stroke="#636363" stroke-width="0.85867" stroke-miterlimit="10"/>
<path d="M-4.54346 38.326C19.86 39.906 44.7356 52.8376 69.2335 46.8441C95.7321 40.3611 118.59 17.1942 146.6 17.0825C170.076 16.9881 187.052 37.6477 208.836 43.2376C234.39 49.8065 262.52 35.0889 288.091 33.3715" stroke="#636363" stroke-width="0.85867" stroke-miterlimit="10"/>
<path d="M-4.79245 39.7257C19.8686 42.3962 42.8638 59.7413 68.0743 52.7775C95.6634 45.1525 120.093 18.3706 149.493 18.4135C173.33 18.4479 189.267 42.92 210.785 49.7721C235.386 57.6032 263.465 40.1894 288.083 38.0341" stroke="#636363" stroke-width="0.85867" stroke-miterlimit="10"/>
<path d="M-5.01575 41.3228C20.0403 45.0408 40.7686 66.6192 66.9838 58.6593C95.5174 49.9953 121.604 19.71 152.233 19.9419C176.438 20.1222 191.388 48.2437 212.631 56.2207C236.451 65.168 264.28 45.2469 288.091 42.7052" stroke="#636363" stroke-width="0.85867" stroke-miterlimit="10"/>
<path d="M-5.2218 43.2463C20.2979 47.8831 38.6219 73.3255 65.9792 64.4382C95.3457 54.8984 122.969 21.3845 154.671 21.8138C179.281 22.1487 193.234 53.5761 214.272 62.5148C237.533 72.3981 264.907 50.2187 288.091 47.3765" stroke="#636363" stroke-width="0.85867" stroke-miterlimit="10"/>
<path d="M-5.39359 45.6505C20.5898 50.9571 36.6126 79.7483 65.0947 70.0711C79.5633 65.1595 93.5424 55.2934 106.457 47.4537C120.221 39.0903 139.49 23.8489 156.68 24.1666C181.779 24.6303 194.634 58.8826 215.611 68.577C238.563 79.1816 265.319 55.0873 288.091 52.039" stroke="#636363" stroke-width="0.85867" stroke-miterlimit="10"/>
<path d="M-5.51379 48.673C20.959 54.3059 34.8781 85.7504 64.3906 75.5236C79.2542 70.3716 93.6798 59.8615 106.869 51.6354C120.762 42.9628 140.589 26.7855 158.14 27.1633C183.832 27.7129 195.432 64.1377 216.564 74.3558C239.482 85.4327 265.491 59.8271 288.091 56.7102" stroke="#636363" stroke-width="0.85867" stroke-miterlimit="10"/>
<path d="M-5.5824 52.4683C21.4142 57.9638 33.5043 91.2201 63.8926 80.7443C79.0052 75.5322 93.783 64.4811 107.092 56.0318C121.14 47.1188 141.044 30.5464 158.905 30.9328C185.352 31.5167 195.467 69.2982 217.037 79.7569C240.212 90.9968 265.388 64.3952 288.083 61.3727" stroke="#636363" stroke-width="0.85867" stroke-miterlimit="10"/>
<path d="M-5.66794 57.0795C21.2256 62.5836 33.4874 95.7712 63.704 85.2181C78.8768 79.9201 93.7146 69.0408 107.179 60.6344C121.269 51.8416 141.311 35.3294 159.102 35.5612C185.635 35.9132 195.441 74.1413 217.002 84.5569C240.436 95.8828 265.208 68.9463 288.1 66.0354" stroke="#636363" stroke-width="0.85867" stroke-miterlimit="10"/>
<path d="M-6.21783 62.0253C20.2464 67.6582 34.217 98.8794 63.6007 88.5582C78.8335 83.2087 93.637 73.1365 107.436 65.0478C121.63 56.7273 142.212 40.5757 159.712 40.7045C185.644 40.902 195.759 78.8896 216.702 89.2366C240.126 100.811 265.148 73.6173 288.091 70.715" stroke="#636363" stroke-width="0.85867" stroke-miterlimit="10"/>
<path d="M-7.21417 67.2031C19.0869 72.5441 34.7662 100.863 63.463 91.1686C78.7989 85.9822 93.7054 76.8288 107.873 69.2296C122.316 61.4844 143.483 46.0369 160.785 46.2601C186.115 46.5779 195.896 83.7755 216.238 94.0623C239.559 105.852 265.148 78.3057 288.083 75.3862" stroke="#636363" stroke-width="0.85867" stroke-miterlimit="10"/>
<path d="M-8.57098 72.5613C17.6957 77.2754 35.2298 101.945 63.3083 93.1951C78.7902 88.3694 93.8942 80.2034 108.457 73.2568C123.286 66.1899 145.011 51.7643 162.21 52.2022C186.965 52.8462 195.878 88.773 215.662 98.9997C238.821 110.97 265.225 82.9855 288.083 80.0489" stroke="#636363" stroke-width="0.85867" stroke-miterlimit="10"/>
<path d="M-10.2103 78.0653C16.0564 81.895 35.6255 102.383 63.1115 94.7922C78.7737 90.4731 94.1267 83.3719 109.111 77.2066C124.412 70.9126 146.66 57.7492 163.842 58.5306C188.091 59.6297 195.639 93.9851 214.976 104.057C238.048 116.079 265.225 87.6996 288.092 84.7114" stroke="#636363" stroke-width="0.85867" stroke-miterlimit="10"/>
<path d="M-12.0308 83.6638C14.2102 86.4288 35.9603 102.409 62.8968 96.106C78.765 92.3965 94.4014 86.4202 109.78 81.1565C125.623 75.7383 148.309 64.0175 165.542 65.211C189.911 66.894 194.454 100.064 214.212 109.218C238.443 120.449 264.221 92.5768 288.1 89.3912" stroke="#636363" stroke-width="0.85867" stroke-miterlimit="10"/>
<path d="M-13.9628 89.3224C10.7927 90.8165 34.1571 101.953 59.1272 97.9521C79.8899 94.629 100.249 87.8369 120.522 82.4016C134.158 78.7522 152.25 71.2217 166.641 72.8875C191.586 75.7726 193.93 107.097 215.422 115.478C238.804 124.605 265.088 97.0848 288.092 94.0623" stroke="#636363" stroke-width="0.85867" stroke-miterlimit="10"/>
<path d="M-15.9209 94.9811C9.10076 95.4362 33.7532 102.005 58.7834 98.9653C79.7608 96.4151 100.506 91.3318 121.209 87.2102C135.291 84.4109 153.478 78.1512 167.998 80.0832C192.023 83.2774 193.784 112.515 214.469 120.681C237.765 129.877 265.105 101.808 288.083 98.7249" stroke="#636363" stroke-width="0.85867" stroke-miterlimit="10"/>
<path d="M-17.8017 100.614C7.59781 100.09 33.0746 102.237 58.4311 100.133C79.6059 98.3815 100.669 95.0155 121.724 92.242C136.261 90.3271 154.362 85.3898 169.071 87.5536C192.16 90.9454 193.62 118.054 213.541 125.91C236.828 135.098 265.087 106.539 288.091 103.396" stroke="#636363" stroke-width="0.85867" stroke-miterlimit="10"/>
<path d="M-19.5359 106.17C6.34447 104.779 32.1733 102.778 58.0622 101.601C79.3916 100.631 100.687 98.9654 121.99 97.54C136.94 96.5353 154.783 92.9203 169.715 95.2559C191.895 98.7164 193.423 123.695 212.631 131.131C236.065 140.216 264.959 111.27 288.1 108.067" stroke="#636363" stroke-width="0.85867" stroke-miterlimit="10"/>
<path d="M-21.0385 111.596C5.33987 109.536 31.1601 103.791 57.6758 103.516C79.0911 103.302 100.506 103.276 121.922 103.156C137.223 103.07 154.637 100.751 169.81 103.164C191.139 106.565 193.183 129.414 211.773 136.318C235.575 145.153 264.641 116.019 288.091 112.73" stroke="#636363" stroke-width="0.85867" stroke-miterlimit="10"/>
<path d="M-22.2148 116.869C4.61002 114.413 30.1812 105.466 57.2809 106.049C93.5769 106.839 133.376 105.723 169.226 111.287C189.765 114.482 192.874 135.244 211 141.461C235.464 149.859 264.1 120.776 288.083 117.392" stroke="#636363" stroke-width="0.85867" stroke-miterlimit="10"/>
<path d="M-22.9788 121.926C3.03031 119.591 27.4165 108.359 53.7348 109.166C91.3532 110.317 131.11 114.447 168.393 119.47C188.452 122.175 193.707 142.68 212.305 146.999C237.636 152.89 263.371 125.455 288.1 122.064" stroke="#636363" stroke-width="0.85867" stroke-miterlimit="10"/>
<path d="M-23.2539 126.735C2.96989 124.82 26.8753 111.957 53.434 113.314C90.8977 115.22 128.636 123.772 165.92 127.997C185.661 130.238 193.311 148.451 211.884 151.902C238.289 156.805 262.443 130.23 288.083 126.735" stroke="#636363" stroke-width="0.85867" stroke-miterlimit="10"/>
<path d="M-22.9537 131.415C3.08122 129.096 27.7508 117.375 54.0948 118.715C90.5712 120.561 127.846 127.516 164.082 132.127C183.797 134.635 193.491 152.538 212.279 155.887C238.34 160.532 262.803 135.167 288.091 131.415" stroke="#636363" stroke-width="0.85867" stroke-miterlimit="10"/>
<path d="M-22.095 136.094C4.99602 133.63 31.2971 123.661 58.6629 125.335C92.6148 127.413 127.597 131.269 161.291 135.888C180.912 138.576 192.452 154.427 211.077 158.48C237.438 164.207 262.571 139.958 288.091 136.077" stroke="#636363" stroke-width="0.85867" stroke-miterlimit="10"/>
<path d="M-20.7978 140.791C6.41348 138.67 33.4358 131.483 60.8017 132.522C93.019 133.741 126.55 135.304 158.536 139.28C178.792 141.796 192.779 156.96 212.271 160.738C238.452 165.804 262.649 144.363 288.083 140.748" stroke="#636363" stroke-width="0.85867" stroke-miterlimit="10"/>
<path d="M-19.1323 145.488C38.828 142.294 97.4838 136.601 155.547 142.491C176.722 144.638 193.191 158.918 213.782 162.395C239.602 166.757 262.881 148.545 288.091 145.411" stroke="#636363" stroke-width="0.85867" stroke-miterlimit="10"/>
<path d="M-17.2089 150.194C10.7151 149.481 38.6562 149.738 66.5716 148.657C94.7274 147.566 124.274 143.676 152.379 145.66C174.627 147.231 193.766 159.785 215.499 163.64C240.324 168.037 263.671 152.529 288.091 150.082" stroke="#636363" stroke-width="0.85867" stroke-miterlimit="10"/>
<path d="M-15.1225 154.899C13.1449 155.131 41.6871 159.811 69.903 157.295C95.9465 154.968 122.995 148.038 149.15 148.923C172.557 149.713 194.384 160.978 217.371 164.619C241.448 168.432 264.255 156.436 288.091 154.744" stroke="#636363" stroke-width="0.85867" stroke-miterlimit="10"/>
<path d="M-12.9584 159.613C15.4034 160.824 45.0791 170.209 73.3551 166.096C97.3893 162.601 121.587 152.581 145.947 152.409C170.522 152.237 195.029 162.267 219.303 165.512C242.556 168.629 264.933 160.326 288.091 159.416" stroke="#636363" stroke-width="0.85867" stroke-miterlimit="10"/>
<path d="M-10.8118 164.319C18.0911 166.551 50.5402 181.174 79.237 174.314C99.9653 169.359 121.166 156.239 142.59 155.655C167.294 154.976 193.818 163.185 218.385 166.148C241.818 168.973 264.658 164.267 288.091 164.096" stroke="#636363" stroke-width="0.85867" stroke-miterlimit="10"/>
<path d="M-8.78564 169.024C20.2288 172.133 53.5023 190.534 82.3536 182.823C101.888 177.602 119.053 161.288 139.627 159.957C165.396 158.282 194.29 165.152 220.11 167.427C242.753 169.419 265.396 168.209 288.091 168.749" stroke="#636363" stroke-width="0.85867" stroke-miterlimit="10"/>
<path d="M-6.97345 173.73C21.3283 177.439 57.1435 200.306 85.1962 191.058C103.477 185.03 117.19 166.895 137.026 164.928C163.782 162.284 194.694 167.633 221.699 169.136C243.844 170.372 265.938 172.304 288.083 173.421" stroke="#636363" stroke-width="0.85867" stroke-miterlimit="10"/>
<path d="M-5.47076 178.427C22.1269 182.488 60.312 209.21 87.6349 198.855C105.032 192.26 115.421 173.137 134.905 170.716C162.657 167.264 194.943 170.776 223.082 171.437C245.098 171.952 266.204 176.589 288.083 178.1" stroke="#636363" stroke-width="0.85867" stroke-miterlimit="10"/>
<path d="M-4.3631 183.115C14.0296 185.94 29.7004 192.681 46.9253 199.421C60.0114 204.547 75.5362 211.717 89.5497 206.059C106.448 199.232 113.953 180.075 133.376 177.439C162.21 173.515 194.943 174.76 224.206 174.477C246.42 174.262 266.238 181.089 288.092 182.763" stroke="#636363" stroke-width="0.85867" stroke-miterlimit="10"/>
<path d="M-3.75348 187.795C14.9827 190.577 30.5075 197.79 47.8698 205.003C60.5524 210.266 76.8757 217.986 90.8033 212.524C107.582 205.947 113.009 187.786 132.543 185.245C162.528 181.355 194.668 179.766 224.971 178.418C247.536 177.422 266.101 185.871 288.091 187.417" stroke="#636363" stroke-width="0.85867" stroke-miterlimit="10"/>
<path d="M-3.7359 192.457C15.0604 195.179 30.5422 202.478 47.9303 209.751C60.5356 215.023 77.065 222.734 91.0184 217.634C107.797 211.503 112.966 194.484 132.381 192.088C162.812 188.336 194.308 185.081 224.954 183.046C247.769 181.526 265.921 190.637 288.092 192.088" stroke="#636363" stroke-width="0.85867" stroke-miterlimit="10"/>
<path d="M-4.30273 197.12C14.2789 199.893 29.8981 206.874 47.2003 213.847C59.9516 218.982 76.1976 226.401 90.1854 221.446C106.844 215.556 113.069 199.31 132.046 196.759C162.005 192.724 192.882 189.289 223.056 186.816C246.498 184.893 265.285 194.767 288.083 196.759" stroke="#636363" stroke-width="0.85867" stroke-miterlimit="10"/>
<path d="M-5.3761 201.765C22.7539 205.853 60.3895 234.026 88.7256 224.666C105.324 219.188 112.932 204.144 131.436 201.43C160.648 197.154 190.324 193.041 219.69 189.847C244.128 187.194 264.307 198.614 288.083 201.43" stroke="#636363" stroke-width="0.85867" stroke-miterlimit="10"/>
<path d="M-6.86182 206.411C21.6632 210.258 58.0022 235.966 86.7333 227.397C103.306 222.459 112.588 208.978 130.586 206.102C158.784 201.602 186.974 196.502 215.242 192.414C240.676 188.731 263.319 202.332 288.091 206.102" stroke="#636363" stroke-width="0.85867" stroke-miterlimit="10"/>
<path d="M-8.65649 211.039C20.3494 214.499 55.1255 237.332 84.3547 229.749C100.79 225.482 112.373 214.208 129.564 210.773C156.389 205.406 183.213 199.833 210.107 194.784C236.271 189.873 262.537 206.076 288.091 210.773" stroke="#636363" stroke-width="0.85867" stroke-miterlimit="10"/>
<path d="M-10.6658 215.676C18.8209 218.612 52.0086 238.319 81.6928 231.845C98.1192 228.264 111.643 218.844 128.422 215.435C154.001 210.24 179.272 203.191 204.68 197.223C231.187 190.989 262.057 209.966 288.091 215.435" stroke="#636363" stroke-width="0.85867" stroke-miterlimit="10"/>
<path d="M-12.8039 220.304C16.6056 222.537 47.1056 238.147 76.7039 234.111C93.8859 231.767 109.703 222.88 126.936 219.643C152.318 214.877 176.533 204.341 201.847 199.31C228.38 194.037 262.065 214.165 288.091 220.107" stroke="#636363" stroke-width="0.85867" stroke-miterlimit="10"/>
<path d="M-14.9674 224.932C14.5022 226.512 44.195 239.049 73.8106 235.949C91.0698 234.137 108.484 227.483 125.597 224.211C149.889 219.566 172.807 208.197 196.91 202.667C211.481 199.318 225.581 205.801 239.465 210.395C255.617 215.736 271.537 220.819 288.1 224.786" stroke="#636363" stroke-width="0.85867" stroke-miterlimit="10"/>
<path d="M-17.0714 229.561C12.3208 230.514 41.5071 240.105 70.9852 237.864C88.4506 236.542 107.101 232.042 124.3 228.813C147.579 224.443 169.526 210.412 192.873 206.943C222.403 202.555 259.025 222.442 288.083 229.449" stroke="#636363" stroke-width="0.85867" stroke-miterlimit="10"/>
<path d="M-19.0117 234.189C10.2003 234.584 39.1117 241.462 68.3752 239.976C86.1754 239.075 105.633 236.516 123.158 233.45C145.973 229.466 167.363 215.856 190.195 212.421C220.283 207.896 258.39 227.208 288.083 234.111" stroke="#636363" stroke-width="0.85867" stroke-miterlimit="10"/>
<path d="M-20.6946 238.826C27.202 238.783 74.4117 245.291 122.214 238.156C144.969 234.755 166.513 222.477 189.259 219.394C219.931 215.246 257.738 232.36 288.083 238.774" stroke="#636363" stroke-width="0.85867" stroke-miterlimit="10"/>
<path d="M-22.0263 243.471C25.587 242.999 74.4196 248.924 121.921 243.445C145.663 240.706 168.813 229.638 192.641 227.637C223.038 225.087 258.132 238.25 288.083 243.445" stroke="#636363" stroke-width="0.85867" stroke-miterlimit="10"/>
<path d="M-22.9101 248.125C25.0381 247.636 73.5186 251.044 121.415 248.125C146.531 246.588 171.459 239.727 196.6 238.662C226.654 237.383 258.219 244.802 288.083 248.125" stroke="#636363" stroke-width="0.85867" stroke-miterlimit="10"/>
<path d="M-23.2539 252.788C80.525 252.684 184.321 251.826 288.091 252.788" stroke="#636363" stroke-width="0.85867" stroke-miterlimit="10"/>
</svg>
