<?xml version="1.0" encoding="UTF-8"?>
<svg version="1.1" xmlns="http://www.w3.org/2000/svg" width="512" height="512">
<path d="M0 0 C18.81 0 37.62 0 57 0 C57.33 36.96 57.66 73.92 58 112 C62.29 106.06 66.58 100.12 71 94 C74.25106511 89.49852524 77.50212896 84.9970532 80.75390625 80.49609375 C82.91005299 77.51090892 85.06347504 74.52378612 87.21484375 71.53515625 C93.33947382 63.03202906 99.50930704 54.56507413 105.74511719 46.14306641 C108.75239794 42.07523482 111.73173407 37.99057552 114.66796875 33.87109375 C115.25900391 33.04351562 115.85003906 32.2159375 116.45898438 31.36328125 C117.58586334 29.78183077 118.70847607 28.197329 119.82617188 26.609375 C120.33083984 25.90167969 120.83550781 25.19398437 121.35546875 24.46484375 C121.79528076 23.842146 122.23509277 23.21944824 122.68823242 22.57788086 C124 21 124 21 127 19 C136.07103445 25.34159387 145.08782164 31.74899921 154 38.3125 C154.76352783 38.87404785 155.52705566 39.4355957 156.3137207 40.01416016 C161.60834641 43.92635455 166.82037138 47.93696094 172 52 C167.96368161 58.60216205 163.66367932 64.86804577 158.89819336 70.9609375 C155.89850501 74.80556894 153.00782307 78.70955189 150.1875 82.6875 C149.57636353 83.54915771 149.57636353 83.54915771 148.95288086 84.42822266 C148.09326847 85.64083994 147.23381687 86.85357123 146.37451172 88.06640625 C143.84941673 91.6185825 141.30054227 95.15357011 138.75 98.6875 C138.20569336 99.4417627 137.66138672 100.19602539 137.10058594 100.97314453 C133.08218375 106.52978639 129.01651148 112.05026147 124.9375 117.5625 C118.48789694 126.27983762 112.21300042 135.11290599 106 144 C106.77110107 143.7412207 107.54220215 143.48244141 108.33666992 143.21582031 C128.79522419 136.3575466 149.28103807 129.58193857 169.78018188 122.84606934 C172.49442734 121.95412752 175.20825551 121.06093345 177.92172241 120.16662598 C181.79832294 118.88911034 185.67643407 117.61623908 189.5546875 116.34375 C190.70265305 115.9649469 191.85061859 115.5861438 193.03337097 115.19586182 C200.97171967 112.59730833 208.9553854 110.24361546 217 108 C219.43164062 115.29492188 221.86328125 122.58984375 224.29492188 129.88476562 C224.55830353 130.67434662 224.82168518 131.46392761 225.0930481 132.2774353 C225.62198324 133.86537967 226.1495521 135.45377979 226.67575073 137.04263306 C227.93411776 140.83696607 229.2117104 144.62155921 230.54541016 148.39013672 C230.78403275 149.07442245 231.02265533 149.75870819 231.26850891 150.46372986 C231.91371419 152.30966354 232.5693995 154.15192474 233.22583008 155.99389648 C234.01355259 159.05262476 234.21077793 160.15833563 233 163 C231.12818909 164.05670166 231.12818909 164.05670166 228.63110352 164.85253906 C227.68968506 165.1615213 226.7482666 165.47050354 225.77832031 165.78884888 C224.73901367 166.111185 223.69970703 166.43352112 222.62890625 166.765625 C221.00118286 167.29203079 221.00118286 167.29203079 219.34057617 167.82907104 C215.75273053 168.98514689 212.15786792 170.11755728 208.5625 171.25 C206.0873326 172.04262116 203.61264566 172.83674417 201.13842773 173.63232422 C196.01188276 175.2775999 190.88248376 176.91339449 185.75 178.54003906 C178.2336819 180.92242613 170.725425 183.32958315 163.21875 185.7421875 C151.48437601 189.51120195 139.74425419 193.26189453 128 197 C133.12884521 198.9504958 138.27277808 200.80089699 143.48803711 202.50854492 C144.19031937 202.73997192 144.89260162 202.97139893 145.61616516 203.20983887 C147.91935868 203.96834545 150.22332864 204.72446185 152.52734375 205.48046875 C154.15999619 206.01740571 155.79260956 206.55446149 157.42518616 207.09162903 C160.85009216 208.21813309 164.27536675 209.34350685 167.70092773 210.46801758 C172.01326293 211.88367861 176.32483688 213.30164066 180.6361599 214.72038078 C199.39877516 220.89388536 218.17126401 227.03054886 237 233 C236.42199508 239.6487666 234.7345567 245.52909771 232.62109375 251.84375 C232.28956802 252.85344849 231.9580423 253.86314697 231.61647034 254.90344238 C230.56366244 258.10460089 229.50075293 261.3022975 228.4375 264.5 C227.71872955 266.67946616 227.00062353 268.85915157 226.28320312 271.0390625 C224.52981658 276.3619363 222.76814053 281.68201014 221 287 C215.15573446 286.37405734 209.91743059 284.82965607 204.35546875 282.96484375 C203.41225769 282.65414444 202.46904663 282.34344513 201.49725342 282.02333069 C199.45729611 281.35081057 197.41818942 280.67570587 195.37985229 279.99829102 C189.91861732 278.18356994 184.45112058 276.38788151 178.984375 274.58984375 C177.84979355 274.2161264 176.7152121 273.84240906 175.54624939 273.45736694 C162.70016161 269.23157869 149.82045251 265.11175013 136.9375 261 C134.72355001 260.29289183 132.5096014 259.58577931 130.2956543 258.87866211 C125.19759193 257.25090587 120.09903961 255.62469229 115 254 C114.67 254.33 114.34 254.66 114 255 C114.35602295 255.48130371 114.7120459 255.96260742 115.07885742 256.45849609 C124.3411982 268.98702293 133.50353855 281.58343184 142.60449219 294.22949219 C144.21465509 296.46610144 145.82571961 298.7020561 147.4375 300.9375 C147.97052734 301.67677734 148.50355469 302.41605469 149.05273438 303.17773438 C152.4358381 307.86046978 155.85086673 312.51830943 159.28686523 317.16235352 C164.52572875 324.24378721 169.7426465 331.34088665 174.875 338.5 C175.39328369 339.2122876 175.91156738 339.9245752 176.44555664 340.65844727 C180 345.65346873 180 345.65346873 180 349 C178.07622521 350.6021147 176.19568186 351.98478069 174.125 353.375 C172.8379621 354.26609058 171.55153375 355.158062 170.265625 356.05078125 C169.57533203 356.52596191 168.88503906 357.00114258 168.17382812 357.49072266 C164.37128173 360.13081046 160.62493013 362.84844244 156.875 365.5625 C156.11606445 366.11043213 155.35712891 366.65836426 154.57519531 367.22290039 C148.32720523 371.74170461 142.14252985 376.33890382 136 381 C132.0310487 377.22518219 128.74565819 373.21736073 125.5 368.8125 C124.98300537 368.11688965 124.46601074 367.4212793 123.93334961 366.70458984 C118.4330438 359.28103661 113.0322119 351.78525245 107.64111328 344.28222656 C104.93360478 340.51700944 102.21639707 336.75880678 99.5 333 C96.22464608 328.46622322 92.95030764 323.93172448 89.6796875 319.39453125 C89.12603516 318.62689453 88.57238281 317.85925781 88.00195312 317.06835938 C86.9767307 315.64683248 85.95193157 314.22500012 84.92773438 312.80273438 C79.66146872 305.50289077 74.32360319 298.2594589 69 291 C68.67 328.95 68.34 366.9 68 406 C49.19 406 30.38 406 11 406 C10.67 369.04 10.34 332.08 10 294 C5.71 299.94 1.42 305.88 -3 312 C-6.25106511 316.50147476 -9.50212896 321.0029468 -12.75390625 325.50390625 C-14.91005299 328.48909108 -17.06347504 331.47621388 -19.21484375 334.46484375 C-25.33947382 342.96797094 -31.50930704 351.43492587 -37.74511719 359.85693359 C-40.75239794 363.92476518 -43.73173407 368.00942448 -46.66796875 372.12890625 C-47.25900391 372.95648438 -47.85003906 373.7840625 -48.45898438 374.63671875 C-49.58586334 376.21816923 -50.70847607 377.802671 -51.82617188 379.390625 C-52.58317383 380.45216797 -52.58317383 380.45216797 -53.35546875 381.53515625 C-53.79528076 382.157854 -54.23509277 382.78055176 -54.68823242 383.42211914 C-56 385 -56 385 -59 387 C-68.99267682 379.88302921 -78.9664089 372.74004493 -88.890625 365.52783203 C-90.85859535 364.10242017 -92.83463903 362.68897916 -94.8125 361.27734375 C-95.91708563 360.47714052 -97.02128275 359.67640057 -98.125 358.875 C-99.07632813 358.19179688 -100.02765625 357.50859375 -101.0078125 356.8046875 C-101.66523437 356.20914062 -102.32265625 355.61359375 -103 355 C-103 351.61579486 -102.55796384 351.02883551 -100.61328125 348.40234375 C-100.09378906 347.69271484 -99.57429688 346.98308594 -99.0390625 346.25195312 C-98.46929687 345.48818359 -97.89953125 344.72441406 -97.3125 343.9375 C-96.11049071 342.30091812 -94.90867301 340.66419551 -93.70703125 339.02734375 C-93.08908691 338.19058105 -92.47114258 337.35381836 -91.83447266 336.49169922 C-89.02883315 332.68089847 -86.26529222 328.84011987 -83.5 325 C-82.41556656 323.49855202 -81.33093047 321.99725038 -80.24609375 320.49609375 C-78.08994701 317.51090892 -75.93652496 314.52378612 -73.78515625 311.53515625 C-68.214624 303.80163862 -62.60706084 296.09877374 -56.9375 288.4375 C-50.48787373 279.72018045 -44.21299981 270.88709314 -38 262 C-38.75539062 262.25354248 -39.51078125 262.50708496 -40.2890625 262.76831055 C-61.24615941 269.79439815 -82.23243038 276.73224738 -103.22973633 283.63711548 C-106.10872853 284.5839304 -108.98728739 285.53204551 -111.86547852 286.48129272 C-115.3203378 287.62061546 -118.77612353 288.75708527 -122.23258781 289.89152908 C-124.12762545 290.5141992 -126.02178316 291.1395453 -127.91590881 291.76498413 C-134.8952914 294.05179061 -141.89133556 296.1522024 -149 298 C-151.43164062 290.70507812 -153.86328125 283.41015625 -156.29492188 276.11523438 C-156.68999435 274.93086288 -156.68999435 274.93086288 -157.0930481 273.7225647 C-157.62198324 272.13462033 -158.1495521 270.54622021 -158.67575073 268.95736694 C-159.93411776 265.16303393 -161.2117104 261.37844079 -162.54541016 257.60986328 C-162.78403275 256.92557755 -163.02265533 256.24129181 -163.26850891 255.53627014 C-163.91371419 253.69033646 -164.5693995 251.84807526 -165.22583008 250.00610352 C-166.01185292 246.9539751 -166.16884956 245.84620693 -165 243 C-163.35597229 242.01922607 -163.35597229 242.01922607 -161.18188477 241.33105469 C-160.3605304 241.06209381 -159.53917603 240.79313293 -158.69293213 240.51602173 C-157.33092682 240.0981691 -157.33092682 240.0981691 -155.94140625 239.671875 C-154.98997742 239.36551117 -154.03854858 239.05914734 -153.05828857 238.74349976 C-149.89780059 237.72996395 -146.73040028 236.74009997 -143.5625 235.75 C-141.36759071 235.05085905 -139.17317899 234.35015423 -136.97924805 233.64794922 C-132.36719956 232.17467072 -127.75224669 230.71104386 -123.13476562 229.25488281 C-116.02564937 227.0116299 -108.92590203 224.73977863 -101.828125 222.4609375 C-92.2390529 219.38316554 -82.64765765 216.31288409 -73.05145264 213.25741577 C-68.69086704 211.86723266 -64.33752128 210.46106914 -60 209 C-66.64715224 206.24552311 -73.32847159 203.82818373 -80.19140625 201.671875 C-81.15534805 201.36542053 -82.11928986 201.05896606 -83.11244202 200.7432251 C-85.18484684 200.08460844 -87.25775298 199.42756748 -89.33111572 198.77197266 C-94.8782878 197.01759816 -100.42151156 195.25083808 -105.96484375 193.484375 C-107.6813916 192.93771179 -107.6813916 192.93771179 -109.43261719 192.38000488 C-122.18312103 188.31376978 -134.905598 184.16232195 -147.625 180 C-148.70927277 179.6453064 -149.79354553 179.29061279 -150.91067505 178.9251709 C-156.94112842 176.95218056 -162.97089907 174.97711916 -169 173 C-168.42199508 166.3512334 -166.7345567 160.47090229 -164.62109375 154.15625 C-164.12380516 152.64170227 -164.12380516 152.64170227 -163.61647034 151.09655762 C-162.56366244 147.89539911 -161.50075293 144.6977025 -160.4375 141.5 C-159.71872955 139.32053384 -159.00062353 137.14084843 -158.28320312 134.9609375 C-156.52981658 129.6380637 -154.76814053 124.31798986 -153 119 C-146.04324221 119.63811306 -139.66739057 121.88307989 -133.0546875 124.05078125 C-131.77414865 124.46602978 -130.49344409 124.8807676 -129.21258545 125.29502869 C-125.80089112 126.39997725 -122.39148646 127.51183504 -118.98249054 128.62507629 C-115.46801933 129.77143059 -111.95145021 130.91131085 -108.43505859 132.05175781 C-102.86381895 133.85945458 -97.29371974 135.67061763 -91.72460938 137.48486328 C-85.04242394 139.66164471 -78.35794474 141.83127364 -71.671875 143.99609375 C-69.92203488 144.56273524 -68.1721975 145.1293852 -66.42236328 145.69604492 C-65.61768616 145.95662689 -64.81300903 146.21720886 -63.98394775 146.48568726 C-58.32151449 148.32034845 -52.66072143 150.16006504 -47 152 C-46.67 151.67 -46.34 151.34 -46 151 C-46.35602295 150.51869629 -46.7120459 150.03739258 -47.07885742 149.54150391 C-56.3411982 137.01297707 -65.50353855 124.41656816 -74.60449219 111.77050781 C-80.75329139 103.22947062 -86.93301394 94.71404809 -93.1875 86.25 C-112 60.79137008 -112 60.79137008 -112 57 C-109.60342691 55.09440219 -107.22655921 53.38520429 -104.6875 51.6875 C-103.12751137 50.61791701 -101.56897232 49.54621743 -100.01171875 48.47265625 C-99.1923584 47.90949707 -98.37299805 47.34633789 -97.52880859 46.76611328 C-92.50046301 43.25432993 -87.60010867 39.56664494 -82.6862793 35.8972168 C-77.56502781 32.09255672 -72.34090087 28.48957796 -67 25 C-60.178592 33.27038493 -53.9405351 41.91268851 -47.70117188 50.62548828 C-44.99584115 54.40161437 -42.28046776 58.17046298 -39.5625 61.9375 C-39.03140625 62.67387695 -38.5003125 63.41025391 -37.953125 64.16894531 C-33.35645195 70.53080711 -28.69770371 76.84593028 -24.03295898 83.15795898 C-19.78899089 88.90848514 -15.60928154 94.70035913 -11.4765625 100.53125 C-8.01662059 105.3773516 -4.5022599 110.18439264 -1 115 C-0.505 58.075 -0.505 58.075 0 0 Z M51.35668945 125.50463867 C50.86773193 125.99810791 50.37877441 126.49157715 49.875 127 C49.37508545 127.50184814 48.8751709 128.00369629 48.36010742 128.52075195 C44.99657436 131.92337692 41.80853626 135.43365167 38.703125 139.07421875 C35.63463173 142.54386825 32.31240845 145.76502448 29 149 C23.59996868 144.70452054 19.02164217 139.89534041 14.44042969 134.7590332 C11.18733726 131.14801449 7.8007951 128.03272952 4 125 C1.29376053 127.70623947 1.71657711 134.3409828 1.21557617 138.02612305 C0.94182259 140.03084525 0.65794041 142.03394398 0.37304688 144.03710938 C0.10911133 145.95426758 0.10911133 145.95426758 -0.16015625 147.91015625 C-0.32136963 149.07683838 -0.48258301 150.24352051 -0.64868164 151.44555664 C-1.033477 155.33870166 -1.05769516 159.09041509 -1 163 C-1.95366455 162.81824219 -2.9073291 162.63648438 -3.88989258 162.44921875 C-7.42843467 161.77556035 -10.96765007 161.1054996 -14.50708008 160.43652344 C-16.03884181 160.14648955 -17.57041924 159.85548047 -19.10180664 159.56347656 C-21.30307037 159.14391641 -23.5049732 158.72786827 -25.70703125 158.3125 C-26.39150833 158.18125732 -27.07598541 158.05001465 -27.78120422 157.91479492 C-30.5753614 157.39070509 -33.14900304 157 -36 157 C-34.62046423 161.54825112 -32.78426139 165.53416116 -30.5234375 169.7109375 C-30.19332672 170.32393707 -29.86321594 170.93693665 -29.52310181 171.56851196 C-28.47817943 173.50644842 -27.42671815 175.44074476 -26.375 177.375 C-25.66102146 178.69637862 -24.94747544 180.01799105 -24.234375 181.33984375 C-22.49457549 184.562614 -20.74889733 187.78215587 -19 191 C-21.59875281 192.73250187 -24.10527499 194.10988182 -26.89453125 195.49609375 C-27.85037109 195.97240234 -28.80621094 196.44871094 -29.79101562 196.93945312 C-30.78810547 197.43380859 -31.78519531 197.92816406 -32.8125 198.4375 C-33.79798828 198.92798828 -34.78347656 199.41847656 -35.79882812 199.92382812 C-37.6957305 200.86782051 -39.59301115 201.81105325 -41.49072266 202.75341797 C-44.32973998 204.16381128 -47.1655848 205.58038627 -50 207 C-46.6829614 209.70282902 -43.18208184 211.49692744 -39.3359375 213.35546875 C-38.70265533 213.66196854 -38.06937317 213.96846832 -37.41690063 214.28425598 C-36.08494387 214.92754257 -34.75194454 215.56867445 -33.41796875 216.20776367 C-31.37195231 217.18896156 -29.33035826 218.17894684 -27.2890625 219.16992188 C-25.99244196 219.79479912 -24.69557537 220.41916612 -23.3984375 221.04296875 C-21.62992432 221.89411255 -21.62992432 221.89411255 -19.82568359 222.76245117 C-17.20880029 224.13372529 -17.20880029 224.13372529 -15 224 C-15.4846875 224.89831543 -15.969375 225.79663086 -16.46875 226.72216797 C-18.262001 230.04837571 -20.04979596 233.37748948 -21.8359375 236.70751953 C-22.61048702 238.14972814 -23.38652377 239.59113904 -24.1640625 241.03173828 C-25.27994335 243.09981848 -26.39048444 245.17068697 -27.5 247.2421875 C-27.84998047 247.88807831 -28.19996094 248.53396912 -28.56054688 249.19943237 C-30.40064691 252.41940838 -30.40064691 252.41940838 -31 256 C-22.37136628 254.88092805 -13.81156549 253.48145751 -5.25 251.9375 C-4.27337402 251.7631543 -3.29674805 251.58880859 -2.29052734 251.40917969 C-1.37480957 251.24192383 -0.4590918 251.07466797 0.484375 250.90234375 C1.30647461 250.75273193 2.12857422 250.60312012 2.97558594 250.44897461 C5.05472295 250.07386538 5.05472295 250.07386538 7 249 C7.12060791 250.05743408 7.12060791 250.05743408 7.24365234 251.13623047 C7.61645892 254.38299819 7.99569048 257.62898583 8.375 260.875 C8.50132812 261.98359375 8.62765625 263.0921875 8.7578125 264.234375 C9.54211741 270.90096669 10.55521323 277.44374681 12 284 C17.49130858 279.4836496 22.31935244 274.60761436 27.125 269.375 C35.37207485 260.40341577 35.37207485 260.40341577 40 257 C44.96780807 261.86642423 49.76615213 266.79079335 54.29296875 272.0703125 C57.05221581 275.18946136 60.01587975 278.09751222 63 281 C63.66 280.67 64.32 280.34 65 280 C65.66274537 277.22336237 65.66274537 277.22336237 66.0703125 273.83984375 C66.24433594 272.57076172 66.41835938 271.30167969 66.59765625 269.99414062 C66.68418457 269.32745361 66.77071289 268.6607666 66.85986328 267.97387695 C67.12095382 265.96857661 67.39710928 263.96581451 67.67578125 261.96289062 C68.53365869 255.56751103 69.09114614 249.44615572 69 243 C69.95366455 243.18175781 70.9073291 243.36351562 71.88989258 243.55078125 C75.42843467 244.22443965 78.96765007 244.8945004 82.50708008 245.56347656 C84.03884181 245.85351045 85.57041924 246.14451953 87.10180664 246.43652344 C89.30307037 246.85608359 91.5049732 247.27213173 93.70703125 247.6875 C94.39150833 247.81874268 95.07598541 247.94998535 95.78120422 248.08520508 C98.5753614 248.60929491 101.14900304 249 104 249 C102.62046423 244.45174888 100.78426139 240.46583884 98.5234375 236.2890625 C98.19332672 235.67606293 97.86321594 235.06306335 97.52310181 234.43148804 C96.47817943 232.49355158 95.42671815 230.55925524 94.375 228.625 C93.66102146 227.30362138 92.94747544 225.98200895 92.234375 224.66015625 C90.49457549 221.437386 88.74889733 218.21784413 87 215 C97.27960584 209.55652551 107.55794641 204.1272359 118 199 C114.6829614 196.29717098 111.18208184 194.50307256 107.3359375 192.64453125 C106.70265533 192.33803146 106.06937317 192.03153168 105.41690063 191.71574402 C104.08494387 191.07245743 102.75194454 190.43132555 101.41796875 189.79223633 C99.37195231 188.81103844 97.33035826 187.82105316 95.2890625 186.83007812 C93.99244196 186.20520088 92.69557537 185.58083388 91.3984375 184.95703125 C89.62992432 184.10588745 89.62992432 184.10588745 87.82568359 183.23754883 C85.20880029 181.86627471 85.20880029 181.86627471 83 182 C83.72703125 180.65252686 83.72703125 180.65252686 84.46875 179.27783203 C86.262001 175.95162429 88.04979596 172.62251052 89.8359375 169.29248047 C90.61048702 167.85027186 91.38652377 166.40886096 92.1640625 164.96826172 C93.27994335 162.90018152 94.39048444 160.82931303 95.5 158.7578125 C96.0249707 157.78897629 96.0249707 157.78897629 96.56054688 156.80056763 C98.40064691 153.58059162 98.40064691 153.58059162 99 150 C90.37136628 151.11907195 81.81156549 152.51854249 73.25 154.0625 C71.78506104 154.32401855 71.78506104 154.32401855 70.29052734 154.59082031 C69.37480957 154.75807617 68.4590918 154.92533203 67.515625 155.09765625 C66.28247559 155.32207397 66.28247559 155.32207397 65.02441406 155.55102539 C62.94527705 155.92613462 62.94527705 155.92613462 61 157 C60.91959473 156.29504395 60.83918945 155.59008789 60.75634766 154.86376953 C60.38354108 151.61700181 60.00430952 148.37101417 59.625 145.125 C59.49867188 144.01640625 59.37234375 142.9078125 59.2421875 141.765625 C58.45788259 135.09903331 57.44478677 128.55625319 56 122 C53.93685233 122 52.73395088 124.13320179 51.35668945 125.50463867 Z " fill="#00E5FE" transform="translate(222,53)"/>
<path d="M0 0 C1.24328568 0.40239899 2.48657135 0.80479797 3.76753235 1.21939087 C7.12986019 2.30779424 10.48986279 3.40321421 13.84944916 4.50004578 C17.3327174 5.63594318 20.8180883 6.76535187 24.30322266 7.89550781 C31.32433854 10.1735726 38.34293067 12.45932795 45.36077881 14.74743652 C49.17058146 15.98954996 52.98096539 17.22987225 56.79150391 18.46972656 C69.65451609 22.65509765 82.51480006 26.84872379 95.37109375 31.0546875 C94.79308883 37.7034541 93.10565045 43.58378521 90.9921875 49.8984375 C90.66066177 50.90813599 90.32913605 51.91783447 89.98756409 52.95812988 C88.93475619 56.15928839 87.87184668 59.356985 86.80859375 62.5546875 C86.0898233 64.73415366 85.37171728 66.91383907 84.65429688 69.09375 C82.90091033 74.4166238 81.13923428 79.73669764 79.37109375 85.0546875 C73.52682821 84.42874484 68.28852434 82.88434357 62.7265625 81.01953125 C61.78335144 80.70883194 60.84014038 80.39813263 59.86834717 80.07801819 C57.82838986 79.40549807 55.78928317 78.73039337 53.75094604 78.05297852 C48.28971107 76.23825744 42.82221433 74.44256901 37.35546875 72.64453125 C36.2208873 72.2708139 35.08630585 71.89709656 33.91734314 71.51205444 C21.07125536 67.28626619 8.19154626 63.16643763 -4.69140625 59.0546875 C-6.90535624 58.34757933 -9.11930485 57.64046681 -11.33325195 56.93334961 C-16.43131432 55.30559337 -21.52986664 53.67937979 -26.62890625 52.0546875 C-26.95890625 52.3846875 -27.28890625 52.7146875 -27.62890625 53.0546875 C-27.2728833 53.53599121 -26.91686035 54.01729492 -26.55004883 54.51318359 C-17.28770805 67.04171043 -8.1253677 79.63811934 0.97558594 92.28417969 C2.58574884 94.52078894 4.19681336 96.7567436 5.80859375 98.9921875 C6.60813477 100.10110352 6.60813477 100.10110352 7.42382812 101.23242188 C10.80693185 105.91515728 14.22196048 110.57299693 17.65795898 115.21704102 C22.8968225 122.29847471 28.11374025 129.39557415 33.24609375 136.5546875 C34.02351929 137.6231189 34.02351929 137.6231189 34.81665039 138.71313477 C38.37109375 143.70815623 38.37109375 143.70815623 38.37109375 147.0546875 C36.44731896 148.6568022 34.56677561 150.03946819 32.49609375 151.4296875 C31.20905585 152.32077808 29.9226275 153.2127495 28.63671875 154.10546875 C27.6012793 154.81823975 27.6012793 154.81823975 26.54492188 155.54541016 C22.74237548 158.18549796 18.99602388 160.90312994 15.24609375 163.6171875 C14.4871582 164.16511963 13.72822266 164.71305176 12.94628906 165.27758789 C6.69829898 169.79639211 0.5136236 174.39359132 -5.62890625 179.0546875 C-9.59785755 175.27986969 -12.88324806 171.27204823 -16.12890625 166.8671875 C-16.64590088 166.17157715 -17.16289551 165.4759668 -17.69555664 164.75927734 C-23.19586245 157.33572411 -28.59669435 149.83993995 -33.98779297 142.33691406 C-36.69530147 138.57169694 -39.41250918 134.81349428 -42.12890625 131.0546875 C-45.40426017 126.52091072 -48.67859861 121.98641198 -51.94921875 117.44921875 C-52.50287109 116.68158203 -53.05652344 115.91394531 -53.62695312 115.12304688 C-54.65217555 113.70151998 -55.67697468 112.27968762 -56.70117188 110.85742188 C-61.96743753 103.55757827 -67.30530306 96.3141464 -72.62890625 89.0546875 C-72.95890625 127.0046875 -73.28890625 164.9546875 -73.62890625 204.0546875 C-92.43890625 204.0546875 -111.24890625 204.0546875 -130.62890625 204.0546875 C-130.66906992 175.59649713 -130.66906992 175.59649713 -130.67916012 161.52998257 C-130.68469942 153.92533684 -130.69172975 146.32070209 -130.7043457 138.71606445 C-130.71539824 132.0506277 -130.72119151 125.38520528 -130.72378349 118.71975899 C-130.72563059 116.17728043 -130.72923748 113.63480252 -130.73463631 111.09232903 C-130.74189921 107.53020702 -130.74289496 103.96813408 -130.74243164 100.40600586 C-130.74602692 99.35583786 -130.74962219 98.30566986 -130.75332642 97.22367859 C-130.73388874 83.40541531 -130.73388874 83.40541531 -127.15234375 79.02734375 C-126.11687353 78.04235188 -125.06664485 77.07269482 -124.00390625 76.1171875 C-122.90048 75.07358165 -121.79890928 74.02801035 -120.69921875 72.98046875 C-119.90112793 72.22950928 -119.90112793 72.22950928 -119.08691406 71.46337891 C-117.23264207 69.67182676 -115.54606786 67.77038735 -113.87890625 65.8046875 C-110.35256468 61.66014778 -106.52004754 57.85486704 -102.62890625 54.0546875 C-97.48246688 58.30494792 -92.92203279 62.80226009 -88.44140625 67.7421875 C-87.24268657 69.06142018 -86.04095515 70.37792378 -84.8359375 71.69140625 C-84.31491455 72.26592529 -83.7938916 72.84044434 -83.25708008 73.43237305 C-81.34504883 75.41303539 -81.34504883 75.41303539 -77.62890625 78.0546875 C-75.97890625 65.8446875 -74.32890625 53.6346875 -72.62890625 41.0546875 C-61.37890625 42.1796875 -61.37890625 42.1796875 -56.18359375 43.24609375 C-55.08789062 43.46845703 -53.9921875 43.69082031 -52.86328125 43.91992188 C-51.7546875 44.15001953 -50.64609375 44.38011719 -49.50390625 44.6171875 C-47.78300781 44.96813477 -47.78300781 44.96813477 -46.02734375 45.32617188 C-43.22692645 45.89792374 -40.42751828 46.4741754 -37.62890625 47.0546875 C-37.99653076 46.34973145 -38.36415527 45.64477539 -38.74291992 44.91845703 C-40.43494103 41.67264749 -42.12568083 38.42617213 -43.81640625 35.1796875 C-44.39455078 34.07109375 -44.97269531 32.9625 -45.56835938 31.8203125 C-48.98289845 25.26131089 -52.34895787 18.68207676 -55.62890625 12.0546875 C-51.88239963 10.15189477 -48.13107183 8.25879344 -44.37890625 6.3671875 C-43.33476562 5.83673828 -42.290625 5.30628906 -41.21484375 4.75976562 C-35.94603694 2.10910047 -30.64653174 -0.47799746 -25.26953125 -2.90234375 C-24.35204102 -3.32104736 -23.43455078 -3.73975098 -22.48925781 -4.17114258 C-15.0084861 -6.19585469 -7.06842422 -2.31613967 0 0 Z " fill="#00E5FE" transform="translate(363.62890625,254.9453125)"/>
<path d="M0 0 C5.63562383 3.05294059 10.69140058 6.59255794 15.8125 10.4375 C17.48366651 11.68324267 19.15556118 12.92800902 20.828125 14.171875 C21.67826172 14.80416016 22.52839844 15.43644531 23.40429688 16.08789062 C25.97731919 17.98329232 28.56924703 19.84862887 31.171875 21.703125 C31.99324951 22.28908447 32.81462402 22.87504395 33.66088867 23.47875977 C35.23373218 24.59783384 36.80932273 25.71305934 38.38793945 26.82397461 C39.096521 27.32936768 39.80510254 27.83476074 40.53515625 28.35546875 C41.157854 28.79528076 41.78055176 29.23509277 42.42211914 29.68823242 C44 31 44 31 46 34 C45.64397705 34.48130371 45.2879541 34.96260742 44.92114258 35.45849609 C36.20323235 47.25060943 27.56604196 59.09721619 19 71 C12.36146462 80.224453 5.69806034 89.42695937 -1.0625 98.5625 C-7.51212627 107.27981955 -13.78700019 116.11290686 -20 125 C-19.22889893 124.7412207 -18.45779785 124.48244141 -17.66333008 124.21582031 C2.79522419 117.3575466 23.28103807 110.58193857 43.78018188 103.84606934 C46.49442734 102.95412752 49.20825551 102.06093345 51.92172241 101.16662598 C55.79832294 99.88911034 59.67643407 98.61623908 63.5546875 97.34375 C64.70265305 96.9649469 65.85061859 96.5861438 67.03337097 96.19586182 C74.97171967 93.59730833 82.9553854 91.24361546 91 89 C93.43164062 96.29492187 95.86328125 103.58984375 98.29492188 110.88476562 C98.68999435 112.06913712 98.68999435 112.06913712 99.0930481 113.2774353 C99.62198324 114.86537967 100.1495521 116.45377979 100.67575073 118.04263306 C101.93411776 121.83696607 103.2117104 125.62155921 104.54541016 129.39013672 C104.78403275 130.07442245 105.02265533 130.75870819 105.26850891 131.46372986 C105.91371419 133.30966354 106.5693995 135.15192474 107.22583008 136.99389648 C108.01355259 140.05262476 108.21077793 141.15833563 107 144 C105.12818909 145.05670166 105.12818909 145.05670166 102.63110352 145.85253906 C101.6896347 146.16153137 100.74816589 146.47052368 99.77816772 146.78887939 C98.73891144 147.11120544 97.69965515 147.43353149 96.62890625 147.765625 C95.54421051 148.11647156 94.45951477 148.46731812 93.34194946 148.82879639 C89.7536968 149.98513906 86.15840325 151.11769493 82.5625 152.25 C80.08002893 153.0441486 77.59801785 153.83973644 75.11645508 154.63671875 C69.98239008 156.28283342 64.84544781 157.91943788 59.70605469 159.54882812 C52.31746795 161.8924455 44.94291933 164.278465 37.5703125 166.671875 C34.19102477 167.76580069 30.81142366 168.85874983 27.43161011 169.9510498 C25.2834009 170.64565153 23.13554789 171.3413559 20.98806763 172.03820801 C17.98731686 173.01028096 14.98426871 173.9748971 11.98046875 174.9375 C11.11289948 175.22002625 10.2453302 175.50255249 9.35147095 175.79364014 C6.91105974 176.57112207 4.46328779 177.29860975 2 178 C0.74361725 178.37479996 0.74361725 178.37479996 -0.53814697 178.75717163 C-7.04078788 180.42862236 -10.78502303 179.60679401 -16.6328125 176.4765625 C-17.3955246 176.09639984 -18.15823669 175.71623718 -18.94406128 175.32455444 C-21.35175761 174.11704209 -23.73766454 172.87220192 -26.125 171.625 C-27.76433215 170.79431865 -29.40494883 169.96616716 -31.046875 169.140625 C-35.04669177 167.12268688 -39.02744832 165.07106172 -43 163 C-41.65992042 158.61167072 -39.93504666 154.75344931 -37.7421875 150.7265625 C-37.11699219 149.57285156 -36.49179687 148.41914063 -35.84765625 147.23046875 C-35.19020906 146.02858845 -34.53265566 144.82676624 -33.875 143.625 C-33.20919301 142.39997993 -32.54382415 141.17472163 -31.87890625 139.94921875 C-30.25689429 136.96377644 -28.6304687 133.98082961 -27 131 C-27.68924561 131.14099121 -28.37849121 131.28198242 -29.08862305 131.42724609 C-54.37660601 136.58495547 -54.37660601 136.58495547 -65 138 C-69.14527811 115.4220519 -69.14527811 115.4220519 -70 106 C-70.07573242 105.21278564 -70.15146484 104.42557129 -70.22949219 103.61450195 C-70.60370915 96.8495625 -69.02567082 93.29699296 -64.875 88.0625 C-64.3402002 87.34795654 -63.80540039 86.63341309 -63.25439453 85.8972168 C-62.11146594 84.37281724 -60.958667 82.85577569 -59.796875 81.34570312 C-57.37033099 78.17800817 -55.0151548 74.96008279 -52.65649414 71.74169922 C-50.88060639 69.32014472 -49.09539825 66.90569411 -47.30859375 64.4921875 C-44.48253117 60.66551331 -41.69443947 56.81419846 -38.9375 52.9375 C-38.5451416 52.38578125 -38.1527832 51.8340625 -37.74853516 51.265625 C-37.35069824 50.70617187 -36.95286133 50.14671875 -36.54296875 49.5703125 C-28.99591001 38.95959626 -21.33883124 28.42744003 -13.625 17.9375 C-13.06651367 17.17671143 -12.50802734 16.41592285 -11.93261719 15.63208008 C-8.04126746 10.35286186 -4.04867036 5.15942818 0 0 Z " fill="#F50056" transform="translate(348,72)"/>
<path d="M0 0 C0.67958771 0.33011078 1.35917542 0.66022156 2.05935669 1.00033569 C4.21054255 2.04625186 6.3591966 3.09725367 8.5078125 4.1484375 C9.97379349 4.86231777 11.43993775 5.57586288 12.90625 6.2890625 C16.48367077 8.02998341 20.05883133 9.77546695 23.6328125 11.5234375 C22.29273292 15.91176678 20.56785916 19.76998819 18.375 23.796875 C17.74980469 24.95058594 17.12460938 26.10429687 16.48046875 27.29296875 C15.82302156 28.49484905 15.16546816 29.69667126 14.5078125 30.8984375 C13.84200551 32.12345757 13.17663665 33.34871587 12.51171875 34.57421875 C10.88970679 37.55966106 9.2632812 40.54260789 7.6328125 43.5234375 C8.66668091 43.31195068 8.66668091 43.31195068 9.72143555 43.09619141 C35.00941851 37.93848203 35.00941851 37.93848203 45.6328125 36.5234375 C49.77809061 59.1013856 49.77809061 59.1013856 50.6328125 68.5234375 C50.70927002 69.30992676 50.78572754 70.09641602 50.86450195 70.90673828 C51.24548737 77.70736047 49.61967403 81.26716801 45.4453125 86.5234375 C44.33458975 88.00517411 43.22391423 89.48694611 42.11328125 90.96875 C41.53626465 91.7205957 40.95924805 92.47244141 40.36474609 93.24707031 C38.13350014 96.17970878 35.9918605 99.17146546 33.8503418 102.16992188 C28.27056377 109.97801844 22.56794672 117.6962978 16.8659668 125.4152832 C12.90388419 130.78395733 8.97373908 136.17447611 5.0703125 141.5859375 C4.54373047 142.31586914 4.01714844 143.04580078 3.47460938 143.79785156 C0.67977953 147.67537865 -2.10896471 151.55722022 -4.89453125 155.44140625 C-5.76646118 156.65461548 -5.76646118 156.65461548 -6.65600586 157.89233398 C-7.76163359 159.43081126 -8.86544197 160.97059838 -9.96704102 162.51196289 C-12.95098091 166.66139236 -16.04475352 170.6391213 -19.3671875 174.5234375 C-25.00281133 171.47049691 -30.05858808 167.93087956 -35.1796875 164.0859375 C-36.85085401 162.84019483 -38.52274868 161.59542848 -40.1953125 160.3515625 C-41.04544922 159.71927734 -41.89558594 159.08699219 -42.77148438 158.43554688 C-45.34450669 156.54014518 -47.93643453 154.67480863 -50.5390625 152.8203125 C-51.36043701 152.23435303 -52.18181152 151.64839355 -53.02807617 151.04467773 C-54.60091968 149.92560366 -56.17651023 148.81037816 -57.75512695 147.69946289 C-58.4637085 147.19406982 -59.17229004 146.68867676 -59.90234375 146.16796875 C-60.5250415 145.72815674 -61.14773926 145.28834473 -61.78930664 144.83520508 C-63.3671875 143.5234375 -63.3671875 143.5234375 -65.3671875 140.5234375 C-65.01116455 140.04213379 -64.6551416 139.56083008 -64.28833008 139.06494141 C-55.57041985 127.27282807 -46.93322946 115.42622131 -38.3671875 103.5234375 C-31.72865212 94.2989845 -25.06524784 85.09647813 -18.3046875 75.9609375 C-11.85506123 67.24361795 -5.58018731 58.41053064 0.6328125 49.5234375 C-0.12257813 49.77697998 -0.87796875 50.03052246 -1.65625 50.29174805 C-22.61334691 57.31783565 -43.59961788 64.25568488 -64.59692383 71.16055298 C-67.47591603 72.1073679 -70.35447489 73.05548301 -73.23266602 74.00473022 C-76.6875253 75.14405296 -80.14331103 76.28052277 -83.59977531 77.41496658 C-85.49481295 78.0376367 -87.38897066 78.6629828 -89.28309631 79.28842163 C-96.2624789 81.57522811 -103.25852306 83.6756399 -110.3671875 85.5234375 C-112.79882812 78.22851562 -115.23046875 70.93359375 -117.66210938 63.63867188 C-117.92549103 62.84909088 -118.18887268 62.05950989 -118.4602356 61.2460022 C-118.98917074 59.65805783 -119.5167396 58.06965771 -120.04293823 56.48080444 C-121.30130526 52.68647143 -122.5788979 48.90187829 -123.91259766 45.13330078 C-124.27053154 44.10687218 -124.27053154 44.10687218 -124.63569641 43.05970764 C-125.28090169 41.21377396 -125.936587 39.37151276 -126.59301758 37.52954102 C-127.37904042 34.4774126 -127.53603706 33.36964443 -126.3671875 30.5234375 C-124.72315979 29.54266357 -124.72315979 29.54266357 -122.54907227 28.85449219 C-121.72767761 28.58552124 -120.90628296 28.31655029 -120.05999756 28.03942871 C-119.1520343 27.76087036 -118.24407104 27.48231201 -117.30859375 27.1953125 C-115.88199432 26.73590271 -115.88199432 26.73590271 -114.42657471 26.26721191 C-111.26574377 25.25350322 -108.09798776 24.26352949 -104.9296875 23.2734375 C-102.72892801 22.57280376 -100.52865702 21.8706339 -98.32885742 21.16699219 C-93.71085882 19.69254196 -89.08999641 18.22758949 -84.46679688 16.76953125 C-77.46142426 14.55781509 -70.4679312 12.31021848 -63.4765625 10.0546875 C-39.09170375 2.19874215 -39.09170375 2.19874215 -29.80474854 -0.70776367 C-27.54901297 -1.41921534 -25.30053362 -2.15020476 -23.05224609 -2.88476562 C-21.81941895 -3.27083984 -20.5865918 -3.65691406 -19.31640625 -4.0546875 C-18.29248779 -4.3837207 -17.26856934 -4.71275391 -16.21362305 -5.05175781 C-10.33270353 -5.92943171 -5.16048486 -2.5341846 0 0 Z " fill="#F50056" transform="translate(183.3671875,265.4765625)"/>
<path d="M0 0 C18.81 0 37.62 0 57 0 C57.04016367 28.45819037 57.04016367 28.45819037 57.05025387 42.52470493 C57.05579317 50.12935066 57.0628235 57.73398541 57.07543945 65.33862305 C57.08649199 72.0040598 57.09228526 78.66948222 57.09487724 85.33492851 C57.09672434 87.87740707 57.10033123 90.41988498 57.10573006 92.96235847 C57.11299296 96.52448048 57.11398871 100.08655342 57.11352539 103.64868164 C57.11712067 104.69884964 57.12071594 105.74901764 57.12442017 106.83100891 C57.10501604 120.62542122 57.10501604 120.62542122 53.7421875 124.80859375 C52.79601562 125.67613281 51.84984375 126.54367188 50.875 127.4375 C47.56100114 130.55524016 44.31841172 133.6470536 41.375 137.125 C37.50187047 141.6672103 33.26176323 145.82521153 29 150 C23.9626796 145.82365018 19.42088212 141.44376765 15 136.625 C14.0869812 135.6364502 14.0869812 135.6364502 13.15551758 134.62792969 C11.43175147 132.75668914 9.71463026 130.87961006 8 129 C7.19949219 128.12601563 6.39898437 127.25203125 5.57421875 126.3515625 C1.60811167 121.93382832 -0.12673937 119.26174482 -0.12025452 113.15950012 C-0.12162918 112.16250595 -0.12300385 111.16551178 -0.12442017 110.13830566 C-0.12082489 109.04570435 -0.11722961 107.95310303 -0.11352539 106.82739258 C-0.11367142 105.67603317 -0.11381744 104.52467377 -0.1139679 103.33842468 C-0.11326991 99.52377453 -0.10548279 95.7091729 -0.09765625 91.89453125 C-0.09579167 89.25323005 -0.09436795 86.6119285 -0.09336853 83.97062683 C-0.09025948 77.72334171 -0.08205182 71.47607408 -0.07201904 65.22879666 C-0.05974869 57.4188105 -0.05427205 49.60882151 -0.04882812 41.79882812 C-0.03908617 27.86587179 -0.01905434 13.93295362 0 0 Z " fill="#536D79" transform="translate(222,53)"/>
<path d="M0 0 C5.06054538 4.19450058 9.61863079 8.59993252 14.0625 13.4375 C14.64837891 14.06720703 15.23425781 14.69691406 15.83789062 15.34570312 C18.70015036 18.4366895 21.52739676 21.55848582 24.30859375 24.72265625 C24.77966553 25.25769775 25.2507373 25.79273926 25.73608398 26.34399414 C28.40412821 29.83971444 29.24985678 32.56731178 29.24050903 36.96075439 C29.24325836 37.95912323 29.24600769 38.95749207 29.24884033 39.9861145 C29.24164978 41.07512054 29.23445923 42.16412659 29.22705078 43.28613281 C29.22734283 44.43763824 29.22763489 45.58914368 29.22793579 46.77554321 C29.22654153 50.58481357 29.21097553 54.39388877 29.1953125 58.203125 C29.19158272 60.84299615 29.18873558 63.48286868 29.18673706 66.1227417 C29.18052292 72.3629356 29.16411302 78.60305936 29.14403808 84.84322238 C29.11948312 92.64546812 29.10854092 100.44772526 29.09765625 108.25 C29.07818143 122.1667213 29.03811637 136.08328955 29 150 C10.19 150 -8.62 150 -28 150 C-28.04016367 121.54180963 -28.04016367 121.54180963 -28.05025387 107.47529507 C-28.05579317 99.87064934 -28.0628235 92.26601459 -28.07543945 84.66137695 C-28.08649199 77.9959402 -28.09228526 71.33051778 -28.09487724 64.66507149 C-28.09672434 62.12259293 -28.10033123 59.58011502 -28.10573006 57.03764153 C-28.11299296 53.47551952 -28.11398871 49.91344658 -28.11352539 46.35131836 C-28.11712067 45.30115036 -28.12071594 44.25098236 -28.12442017 43.16899109 C-28.10498249 29.35072781 -28.10498249 29.35072781 -24.5234375 24.97265625 C-23.48796728 23.98766438 -22.4377386 23.01800732 -21.375 22.0625 C-20.27157375 21.01889415 -19.17000303 19.97332285 -18.0703125 18.92578125 C-17.53825195 18.4251416 -17.00619141 17.92450195 -16.45800781 17.40869141 C-14.60373582 15.61713926 -12.91716161 13.71569985 -11.25 11.75 C-7.72365843 7.60546028 -3.89114129 3.80017954 0 0 Z " fill="#536E79" transform="translate(261,309)"/>
<path d="M0 0 C6.92109824 0.63892843 13.25996511 2.85899375 19.83984375 5.015625 C21.11177701 5.42797338 22.38387569 5.83981178 23.65612793 6.25117493 C27.05123327 7.35048968 30.44403037 8.45676734 33.83637619 9.56456375 C37.3461416 10.70953218 40.85785311 11.84849965 44.36938477 12.98803711 C49.28280038 14.58313425 54.19549002 16.18043334 59.10725307 17.78061199 C66.65058772 20.23809506 74.19845486 22.68112315 81.75 25.11328125 C84.47220472 25.99156867 87.19428546 26.87023879 89.91629028 27.74914551 C91.58223857 28.28658851 93.24847325 28.82314464 94.91500854 29.35876465 C97.19307409 30.09148072 99.46974352 30.82838142 101.74609375 31.56640625 C102.99060303 31.96802979 104.2351123 32.36965332 105.51733398 32.78344727 C116.48408456 36.61431429 116.48408456 36.61431429 119.31640625 42.12109375 C120.12174805 43.64959961 120.12174805 43.64959961 120.94335938 45.20898438 C121.47767578 46.27439453 122.01199219 47.33980469 122.5625 48.4375 C123.10068359 49.46810547 123.63886719 50.49871094 124.19335938 51.56054688 C125.8220011 54.69435928 127.41650692 57.84315515 129 61 C129.57347168 62.14227051 130.14694336 63.28454102 130.73779297 64.46142578 C132.16226603 67.30577549 133.58310139 70.15187136 135 73 C124.75180598 78.18469737 114.47255391 83.28033502 104 88 C103.17886719 88.41507812 102.35773438 88.83015625 101.51171875 89.2578125 C96.00382316 90.88533997 90.23442437 88.58397341 84.9519043 86.85791016 C84.28373184 86.64134766 83.61555939 86.42478516 82.92713928 86.20166016 C80.72435541 85.48622473 78.52433001 84.76267078 76.32421875 84.0390625 C74.75674375 83.52824435 73.18909781 83.01795046 71.62129211 82.50814819 C67.47838482 81.15950462 63.33774283 79.80403508 59.1975708 78.44702148 C55.11669117 77.11057682 51.03389774 75.78001046 46.95117188 74.44921875 C42.11444529 72.87225519 37.27791286 71.2947083 32.44235229 69.71417236 C16.30643747 64.44042445 0.15483103 59.21547308 -16 54 C-15.42199508 47.3512334 -13.7345567 41.47090229 -11.62109375 35.15625 C-11.28956802 34.14655151 -10.9580423 33.13685303 -10.61647034 32.09655762 C-9.56366244 28.89539911 -8.50075293 25.6977025 -7.4375 22.5 C-6.71872955 20.32053384 -6.00062353 18.14084843 -5.28320312 15.9609375 C-3.52981658 10.6380637 -1.76814053 5.31798986 0 0 Z " fill="#28B6F6" transform="translate(69,172)"/>
<path d="M0 0 C0.67958771 0.33011078 1.35917542 0.66022156 2.05935669 1.00033569 C4.21054255 2.04625186 6.3591966 3.09725367 8.5078125 4.1484375 C9.97379349 4.86231777 11.43993775 5.57586288 12.90625 6.2890625 C16.48367077 8.02998341 20.05883133 9.77546695 23.6328125 11.5234375 C21.72824967 17.71817535 18.80146314 23.13146903 15.72021484 28.80981445 C14.76052308 30.58093509 13.81146939 32.35746527 12.86328125 34.13476562 C12.25355469 35.26462891 11.64382812 36.39449219 11.015625 37.55859375 C10.46277832 38.583479 9.90993164 39.60836426 9.34033203 40.66430664 C6.09570401 46.09722611 3.85168028 48.91895579 -2.27734375 50.86328125 C-2.88868164 51.06281403 -3.50001953 51.2623468 -4.12988281 51.46792603 C-6.22513645 52.14784213 -8.32716041 52.80388867 -10.4296875 53.4609375 C-11.95360385 53.95065265 -13.47693816 54.44218184 -14.99975586 54.93530273 C-17.61054238 55.77963213 -20.2219827 56.62164077 -22.83546448 57.45759583 C-30.91553729 60.04243186 -38.97391241 62.69046271 -47.02891731 65.35210228 C-50.79100168 66.59519259 -54.55362056 67.83666343 -58.31616211 69.07836914 C-59.06855384 69.3266789 -59.82094557 69.57498865 -60.59613705 69.83082294 C-62.11614045 70.3324553 -63.63615139 70.83406481 -65.15616989 71.3356514 C-66.66984407 71.83518072 -68.18348806 72.33480155 -69.69710159 72.83451462 C-74.07808452 74.28065662 -78.46000658 75.7238884 -82.84329224 77.16303635 C-84.19336579 77.60680367 -85.54311952 78.05154545 -86.89251709 78.49736404 C-94.66473204 81.0645501 -102.44244989 83.47058452 -110.3671875 85.5234375 C-112.79882812 78.22851562 -115.23046875 70.93359375 -117.66210938 63.63867188 C-117.92549103 62.84909088 -118.18887268 62.05950989 -118.4602356 61.2460022 C-118.98917074 59.65805783 -119.5167396 58.06965771 -120.04293823 56.48080444 C-121.30130526 52.68647143 -122.5788979 48.90187829 -123.91259766 45.13330078 C-124.27053154 44.10687218 -124.27053154 44.10687218 -124.63569641 43.05970764 C-125.28090169 41.21377396 -125.936587 39.37151276 -126.59301758 37.52954102 C-127.37904042 34.4774126 -127.53603706 33.36964443 -126.3671875 30.5234375 C-124.72315979 29.54266357 -124.72315979 29.54266357 -122.54907227 28.85449219 C-121.72767761 28.58552124 -120.90628296 28.31655029 -120.05999756 28.03942871 C-119.1520343 27.76087036 -118.24407104 27.48231201 -117.30859375 27.1953125 C-115.88199432 26.73590271 -115.88199432 26.73590271 -114.42657471 26.26721191 C-111.26574377 25.25350322 -108.09798776 24.26352949 -104.9296875 23.2734375 C-102.72892801 22.57280376 -100.52865702 21.8706339 -98.32885742 21.16699219 C-93.71085882 19.69254196 -89.08999641 18.22758949 -84.46679688 16.76953125 C-77.46142426 14.55781509 -70.4679312 12.31021848 -63.4765625 10.0546875 C-39.09170375 2.19874215 -39.09170375 2.19874215 -29.80474854 -0.70776367 C-27.54901297 -1.41921534 -25.30053362 -2.15020476 -23.05224609 -2.88476562 C-21.81941895 -3.27083984 -20.5865918 -3.65691406 -19.31640625 -4.0546875 C-18.29248779 -4.3837207 -17.26856934 -4.71275391 -16.21362305 -5.05175781 C-10.33270353 -5.92943171 -5.16048486 -2.5341846 0 0 Z " fill="#D500F9" transform="translate(183.3671875,265.4765625)"/>
<path d="M0 0 C1.24328568 0.40239899 2.48657135 0.80479797 3.76753235 1.21939087 C7.12986019 2.30779424 10.48986279 3.40321421 13.84944916 4.50004578 C17.3327174 5.63594318 20.8180883 6.76535187 24.30322266 7.89550781 C31.32433854 10.1735726 38.34293067 12.45932795 45.36077881 14.74743652 C49.17058146 15.98954996 52.98096539 17.22987225 56.79150391 18.46972656 C69.65451609 22.65509765 82.51480006 26.84872379 95.37109375 31.0546875 C94.79308883 37.7034541 93.10565045 43.58378521 90.9921875 49.8984375 C90.66066177 50.90813599 90.32913605 51.91783447 89.98756409 52.95812988 C88.93475619 56.15928839 87.87184668 59.356985 86.80859375 62.5546875 C86.0898233 64.73415366 85.37171728 66.91383907 84.65429688 69.09375 C82.90091033 74.4166238 81.13923428 79.73669764 79.37109375 85.0546875 C73.52682295 84.42874428 68.28853463 82.88432635 62.7265625 81.01953125 C61.78380463 80.70901321 60.84104675 80.39849518 59.86972046 80.0785675 C56.76430275 79.05487089 53.66150951 78.02344013 50.55859375 76.9921875 C46.14553829 75.53469827 41.73104462 74.08159293 37.31640625 72.62890625 C36.17976028 72.2543631 35.04311432 71.87981995 33.87202454 71.493927 C25.71591644 68.81116091 17.54492932 66.17798849 9.36328125 63.57421875 C8.2310463 63.21371933 7.09881134 62.85321991 5.93226624 62.48179626 C1.52258427 61.07890803 -2.88751804 59.67740662 -7.29971313 58.28244019 C-10.34662752 57.31897374 -13.3921354 56.35116429 -16.4375 55.3828125 C-17.32410309 55.10423904 -18.21070618 54.82566559 -19.12417603 54.53865051 C-21.63599748 53.73810204 -24.13409464 52.9066925 -26.62890625 52.0546875 C-27.52918549 51.75344971 -28.42946472 51.45221191 -29.35702515 51.1418457 C-34.53788247 49.27090363 -37.66835432 47.97579136 -40.23828125 42.8359375 C-40.76550781 41.82015625 -41.29273438 40.804375 -41.8359375 39.7578125 C-42.59970703 38.17226563 -42.59970703 38.17226563 -43.37890625 36.5546875 C-43.90355469 35.52859375 -44.42820312 34.5025 -44.96875 33.4453125 C-46.55387445 30.32985803 -48.0935512 27.19492312 -49.62890625 24.0546875 C-50.75706988 21.79324964 -51.88719946 19.53279119 -53.01953125 17.2734375 C-53.88932292 15.53385417 -54.75911458 13.79427083 -55.62890625 12.0546875 C-51.88239963 10.15189477 -48.13107183 8.25879344 -44.37890625 6.3671875 C-42.81269531 5.57151367 -42.81269531 5.57151367 -41.21484375 4.75976562 C-35.94603694 2.10910047 -30.64653174 -0.47799746 -25.26953125 -2.90234375 C-24.35204102 -3.32104736 -23.43455078 -3.73975098 -22.48925781 -4.17114258 C-15.0084861 -6.19585469 -7.06842422 -2.31613967 0 0 Z " fill="#28B6F6" transform="translate(363.62890625,254.9453125)"/>
<path d="M0 0 C2.24729615 2.24729615 2.72154363 3.67186807 3.71166992 6.66162109 C4.03507858 7.62957611 4.35848724 8.59753113 4.69169617 9.59481812 C5.03449112 10.64376251 5.37728607 11.69270691 5.73046875 12.7734375 C6.08514725 13.84872711 6.43982574 14.92401672 6.80525208 16.03189087 C7.55391005 18.30896126 8.29932061 20.5871015 9.04174805 22.86621094 C10.18181911 26.35760264 11.33933649 29.84288178 12.49804688 33.328125 C13.22242869 35.53871068 13.94577086 37.74963737 14.66796875 39.9609375 C15.0168364 41.00583344 15.36570404 42.05072937 15.72514343 43.12728882 C16.1960717 44.58867783 16.1960717 44.58867783 16.67651367 46.07958984 C16.95694016 46.93515472 17.23736664 47.7907196 17.52629089 48.67221069 C18.05426005 51.26663191 18.13511455 52.60149268 17 55 C15.12818909 56.05670166 15.12818909 56.05670166 12.63110352 56.85253906 C11.6896347 57.16153137 10.74816589 57.47052368 9.77816772 57.78887939 C8.73891144 58.11120544 7.69965515 58.43353149 6.62890625 58.765625 C5.54421051 59.11647156 4.45951477 59.46731812 3.34194946 59.82879639 C-0.2463032 60.98513906 -3.84159675 62.11769493 -7.4375 63.25 C-9.91997107 64.0441486 -12.40198215 64.83973644 -14.88354492 65.63671875 C-20.01760992 67.28283342 -25.15455219 68.91943788 -30.29394531 70.54882812 C-37.68253205 72.8924455 -45.05708067 75.278465 -52.4296875 77.671875 C-55.80897523 78.76580069 -59.18857634 79.85874983 -62.56838989 80.9510498 C-64.7165991 81.64565153 -66.86445211 82.3413559 -69.01193237 83.03820801 C-72.01268314 84.01028096 -75.01573129 84.9748971 -78.01953125 85.9375 C-78.88710052 86.22002625 -79.7546698 86.50255249 -80.64852905 86.79364014 C-83.08894026 87.57112207 -85.53671221 88.29860975 -88 89 C-88.8375885 89.24986664 -89.675177 89.49973328 -90.53814697 89.75717163 C-97.04078788 91.42862236 -100.78502303 90.60679401 -106.6328125 87.4765625 C-107.3955246 87.09639984 -108.15823669 86.71623718 -108.94406128 86.32455444 C-111.35175761 85.11704209 -113.73766454 83.87220192 -116.125 82.625 C-117.76433215 81.79431865 -119.40494883 80.96616716 -121.046875 80.140625 C-125.04669177 78.12268688 -129.02744832 76.07106172 -133 74 C-131.09543717 67.80526215 -128.16865064 62.39196847 -125.08740234 56.71362305 C-124.12771058 54.94250241 -123.17865689 53.16597223 -122.23046875 51.38867188 C-121.62074219 50.25880859 -121.01101563 49.12894531 -120.3828125 47.96484375 C-119.55354248 46.42751587 -119.55354248 46.42751587 -118.70751953 44.85913086 C-115.43086275 39.37258131 -113.17218749 36.58973664 -106.984375 34.625 C-106.36492508 34.42277832 -105.74547516 34.22055664 -105.10725403 34.01220703 C-102.99284856 33.32591112 -100.87167443 32.66345215 -98.75 32 C-97.21680856 31.50694002 -95.68419541 31.012079 -94.15209961 30.515625 C-90.58458947 29.36141307 -87.01435318 28.2160771 -83.44287109 27.07421875 C-75.89268844 24.65223964 -68.36266196 22.16940093 -60.83203125 19.6875 C-59.40220143 19.21652157 -57.9723613 18.74557442 -56.54251099 18.2746582 C-54.37932022 17.56220002 -52.21613173 16.84973501 -50.05296898 16.13719177 C-43.02235473 13.82152471 -35.99077253 11.50883164 -28.9569149 9.20303345 C-27.0745763 8.58567784 -25.19265252 7.96705786 -23.31074524 7.34838867 C-15.56653979 4.81103626 -7.79717188 2.36956551 0 0 Z " fill="#D500F9" transform="translate(438,161)"/>
</svg>
