<svg width="64" height="65" viewBox="0 0 64 65" fill="none" xmlns="http://www.w3.org/2000/svg">
<path fill-rule="evenodd" clip-rule="evenodd" d="M58.6464 29.1012C51.3861 21.4358 38.1936 5.83765 31.0075 6.02611C24.1963 6.20467 4.54329 30.7762 4.62243 31.712C5.08888 37.2194 5.25262 42.7521 5.46679 48.2733C5.5677 50.878 5.22893 54.0083 6.94334 56.1807C10.0106 60.0671 16.7762 59.0324 21.1013 59.0003C31.2256 58.9256 41.4884 58.7411 51.5251 57.2869C55.6444 56.6904 57.5127 54.7688 58.5539 52.5424C59.7098 50.0722 59.6916 46.7648 59.6559 44.1234C59.5961 39.6395 59.2236 33.8314 58.6464 29.1012Z" stroke="white" stroke-width="4" stroke-miterlimit="1.5" stroke-linecap="round" stroke-linejoin="round"/>
<path fill-rule="evenodd" clip-rule="evenodd" d="M53.848 29.5952C53.854 24.309 53.894 18.7105 53.5047 13.4451C37.2875 13.3199 24.649 13.7243 9.23901 15.2666C9.2959 21.273 9.72179 27.2404 9.93943 33.2383C17.5682 37.9844 25.3213 42.454 33.2013 46.797C40.384 41.4143 46.6417 35.796 53.848 29.5952Z" stroke="white" stroke-width="4" stroke-miterlimit="1.5" stroke-linecap="round" stroke-linejoin="round"/>
<path d="M29.0477 23.2629C33.816 22.7915 38.7421 22.5534 43.5351 22.4277" stroke="white" stroke-width="4" stroke-miterlimit="1.5" stroke-linecap="round" stroke-linejoin="round"/>
<path d="M19.9175 31.7715C27.8802 31.5602 35.8444 31.3219 43.8046 31.0049" stroke="white" stroke-width="4" stroke-miterlimit="1.5" stroke-linecap="round" stroke-linejoin="round"/>
</svg>
