<?xml version="1.0" standalone="no"?>
<!DOCTYPE svg PUBLIC "-//W3C//DTD SVG 20010904//EN"
 "http://www.w3.org/TR/2001/REC-SVG-20010904/DTD/svg10.dtd">
<svg version="1.0" xmlns="http://www.w3.org/2000/svg"
 width="518.000000pt" height="482.000000pt" viewBox="0 0 518.000000 482.000000"
 preserveAspectRatio="xMidYMid meet">

<g transform="translate(0.000000,482.000000) scale(0.100000,-0.100000)"
fill="#fff" stroke="none">
<path d="M2867 4613 c-3 -5 -34 -64 -70 -133 -35 -69 -156 -300 -268 -515
-111 -214 -229 -439 -261 -500 -151 -282 -199 -385 -181 -385 10 -1 107 0 216
0 219 1 213 3 178 -67 -22 -42 -250 -483 -356 -688 -37 -71 -117 -226 -177
-343 l-110 -212 27 -53 c15 -28 144 -245 285 -482 296 -495 509 -856 570 -968
58 -107 69 -119 113 -120 20 0 38 1 40 4 10 10 18 4469 8 4469 -5 0 -12 -3
-14 -7z"/>
<path d="M1053 4478 c-9 -12 -348 -679 -587 -1156 -66 -131 -95 -199 -91 -212
8 -25 120 -225 427 -765 134 -236 288 -508 342 -602 54 -95 101 -175 106 -178
5 -3 59 95 121 217 117 233 211 414 435 834 74 138 134 259 134 268 0 21 -107
221 -395 741 -122 220 -279 505 -350 633 -70 127 -129 232 -130 232 -1 0 -7
-6 -12 -12z"/>
<path d="M3215 3680 l-120 -5 0 -300 0 -300 160 -5 160 -5 5 -1450 5 -1450
329 -3 c223 -1 333 1 340 8 8 8 11 391 12 1258 1 686 2 1336 3 1445 l1 197
136 0 c74 0 144 5 154 10 27 15 61 66 207 320 71 124 136 235 143 247 8 12 11
26 6 30 -8 9 -1344 11 -1541 3z"/>
</g>
</svg>
